<svg width="16" height="16" viewBox="0 0 16 16" fill="none" xmlns="http://www.w3.org/2000/svg">
<rect x="6.6665" y="3.33331" width="2.66667" height="9.33333" rx="1.33333" fill="white"/>
<path d="M14.9622 7.10486L8.89468 1.03733C8.65729 0.800007 8.33535 0.666687 7.99968 0.666687C7.664 0.666687 7.34207 0.800007 7.10468 1.03733L1.03715 7.10549C0.799824 7.34289 0.666504 7.66482 0.666504 8.00049C0.666504 8.33617 0.799824 8.6581 1.03715 8.8955L7.10468 14.9624C7.34207 15.1997 7.664 15.333 7.99968 15.333C8.33535 15.333 8.65729 15.1997 8.89468 14.9624L14.9622 8.8955C15.0798 8.77794 15.1731 8.63836 15.2368 8.48474C15.3004 8.33112 15.3332 8.16646 15.3332 8.00018C15.3332 7.83389 15.3004 7.66924 15.2368 7.51562C15.1731 7.36199 15.0798 7.22242 14.9622 7.10486ZM7.40976 4.46606C7.40976 4.29819 7.47645 4.13719 7.59515 4.01849C7.71385 3.89979 7.87485 3.8331 8.04272 3.8331C8.21059 3.8331 8.37159 3.89979 8.49029 4.01849C8.60899 4.13719 8.67568 4.29819 8.67568 4.46606V8.2638C8.67568 8.43168 8.60899 8.59267 8.49029 8.71137C8.37159 8.83008 8.21059 8.89676 8.04272 8.89676C7.87485 8.89676 7.71385 8.83008 7.59515 8.71137C7.47645 8.59267 7.40976 8.43168 7.40976 8.2638V4.46606ZM8.075 11.7514H8.05728C7.80771 11.7504 7.56816 11.6531 7.38865 11.4797C7.20914 11.3064 7.10355 11.0703 7.09392 10.821C7.08927 10.6969 7.10941 10.5731 7.15318 10.4569C7.19694 10.3407 7.26344 10.2344 7.34879 10.1443C7.43414 10.0541 7.53661 9.98182 7.65022 9.93173C7.76383 9.88164 7.8863 9.85471 8.01044 9.85253H8.02816C8.27782 9.85317 8.51755 9.9504 8.69713 10.1238C8.87671 10.2973 8.9822 10.5335 8.99152 10.783C8.99617 10.9071 8.97603 11.0308 8.93226 11.147C8.8885 11.2632 8.822 11.3695 8.73665 11.4597C8.6513 11.5499 8.54883 11.6221 8.43522 11.6722C8.32161 11.7223 8.19914 11.7492 8.075 11.7514Z" fill="#EC1217"/>
</svg>
