<svg xmlns="http://www.w3.org/2000/svg" viewBox="0 0 24 24"><path fill="#f7c4f1" d="M21 8v8c0 2.8-2.2 5-5 5H8c-1.7 0-3.2-.8-4.1-2.1.4.1.7.1 1.1.1h8c2.8 0 5-2.2 5-5V6c0-1.1-.3-2.1-.9-2.9C19.3 3.6 21 5.6 21 8z"/><path fill="#c96db5" d="M16 2H8C4.7 2 2 4.7 2 8v8c0 3.3 2.7 6 6 6h8c3.3 0 6-2.7 6-6V8c0-3.3-2.7-6-6-6zm4 14c0 2.2-1.8 4-4 4H8c-2.2 0-4-1.8-4-4V8c0-2.2 1.8-4 4-4h8c2.2 0 4 1.8 4 4v8z"/><path fill="#c96db5" d="m16.5 8.9-4-2.3c-.3-.2-.7-.2-1 0l-4 2.3c-.3.2-.5.5-.5.9v4.6c0 .4.2.7.5.9l4 2.3c.2.1.3.1.5.1s.3 0 .5-.1l4-2.3c.3-.2.5-.5.5-.9V9.8c0-.4-.2-.7-.5-.9zM12 8.6l1.9 1.1-1.9 1.1-1.9-1.1L12 8.6zm-3 2.8 2 1.2V15l-2-1.2v-2.4zm4 3.6v-2.4l2-1.2v2.4L13 15z"/></svg>