<svg width="24" height="22" viewBox="0 0 24 22" fill="none" xmlns="http://www.w3.org/2000/svg">
<path d="M23.1192 19L13.7722 1.15C13.6028 0.826739 13.3481 0.555993 13.0359 0.367088C12.7236 0.178184 12.3656 0.0783234 12.0007 0.0783234C11.6357 0.0783234 11.2777 0.178184 10.9654 0.367088C10.6532 0.555993 10.3986 0.826739 10.2292 1.15L0.881162 19C0.721483 19.3048 0.643166 19.6457 0.653785 19.9897C0.664403 20.3337 0.763598 20.6691 0.941777 20.9635C1.11996 21.2579 1.37109 21.5014 1.67089 21.6704C1.9707 21.8393 2.30903 21.9281 2.65316 21.928H21.3472C21.6913 21.9281 22.0296 21.8393 22.3294 21.6704C22.6292 21.5014 22.8804 21.2579 23.0585 20.9635C23.2367 20.6691 23.3359 20.3337 23.3465 19.9897C23.3572 19.6457 23.2788 19.3048 23.1192 19ZM11.0002 7.423C11.0002 7.15778 11.1055 6.90343 11.2931 6.71589C11.4806 6.52836 11.7349 6.423 12.0002 6.423C12.2654 6.423 12.5197 6.52836 12.7073 6.71589C12.8948 6.90343 13.0002 7.15778 13.0002 7.423V13.423C13.0002 13.6882 12.8948 13.9426 12.7073 14.1301C12.5197 14.3176 12.2654 14.423 12.0002 14.423C11.7349 14.423 11.4806 14.3176 11.2931 14.1301C11.1055 13.9426 11.0002 13.6882 11.0002 13.423V7.423ZM12.0502 18.933H12.0222C11.6278 18.9317 11.2492 18.778 10.9655 18.5041C10.6819 18.2301 10.5151 17.8571 10.5002 17.463C10.493 17.267 10.5249 17.0715 10.5941 16.888C10.6633 16.7045 10.7683 16.5366 10.9031 16.3942C11.038 16.2517 11.1998 16.1376 11.3792 16.0584C11.5587 15.9792 11.7521 15.9366 11.9482 15.933H11.9762C12.3704 15.9335 12.7493 16.0864 13.0333 16.3599C13.3174 16.6333 13.4847 17.006 13.5002 17.4C13.5079 17.5964 13.4763 17.7924 13.4072 17.9765C13.3382 18.1605 13.233 18.3289 13.0979 18.4718C12.9628 18.6146 12.8005 18.729 12.6206 18.8082C12.4407 18.8874 12.2467 18.9298 12.0502 18.933Z" fill="#FFDD59"/>
</svg>
